<?xml version="1.0" encoding="utf-8"?>
<!-- Generator: Adobe Illustrator 15.0.0, SVG Export Plug-In . SVG Version: 6.00 Build 0)  -->
<!DOCTYPE svg PUBLIC "-//W3C//DTD SVG 1.1//EN" "http://www.w3.org/Graphics/SVG/1.1/DTD/svg11.dtd">
<svg version="1.1" xmlns="http://www.w3.org/2000/svg" xmlns:xlink="http://www.w3.org/1999/xlink" x="0px" y="0px" width="500px"
	 height="500px" viewBox="0 0 500 500" enable-background="new 0 0 500 500" xml:space="preserve">
<g id="Layer_3">
	<rect display="none" fill="#C62828" width="500" height="500"/>
	<ellipse display="none" fill="#FFFFFF" cx="253.31" cy="250.917" rx="186.96" ry="185.917"/>
</g>
<g id="Layer_1">
	<g>
		<path fill="#FFFFFF" d="M233.504,273.577c2.034,9.192,8.967,11.98,15.94,10.438c10.142-2.243,15.237-10.02,16.02-17.008
			c0.124-1.69-0.068-3.31-0.349-4.578l-2.945-13.312C246.887,252.165,230.209,258.681,233.504,273.577z"/>
		<path fill="#FFFFFF" d="M342.107,311.236c-0.869-3.938-1.643-6.41-2.321-7.411c-0.678-1.003-1.696-1.353-3.056-1.053
			c-1.15,0.253-1.933,0.892-2.347,1.915s-0.141,3.715,0.821,8.072l8.72,39.53c1.084,4.915,1.953,7.904,2.608,8.966
			c0.653,1.062,1.714,1.432,3.178,1.108c1.499-0.331,2.312-1.204,2.438-2.621c0.125-1.417-0.361-4.618-1.461-9.603L342.107,311.236z
			"/>
		<path fill="#FFFFFF" d="M289.016,322.619c-0.638-2.894-1.507-4.676-2.604-5.348c-1.1-0.671-3.078-0.692-5.937-0.062l4.753,21.545
			c0.635-0.104,1.179-0.206,1.632-0.306c2.021-0.446,3.315-1.253,3.881-2.419c0.565-1.167,0.502-3.318-0.19-6.456L289.016,322.619z"
			/>
		<path fill="#FFFFFF" d="M441.304,250.167c0-104.014-84.307-188.333-188.303-188.333c-103.997,0-188.303,84.32-188.303,188.333
			c0,104.013,84.306,188.333,188.303,188.333c57.908,0,109.698-26.156,144.239-67.287l0,0l0,0c0,0-0.001,0.001,0,0
			c-1.233-5.424-16.716-73.496-16.716-73.496l-13.02,2.872l-3.737-16.941l48.106-10.611l3.736,16.94l-13.072,2.884
			c11.295,51.032,10.751,48.631,11.97,54.175l0,0C431.516,318.731,441.304,285.594,441.304,250.167z M320.75,277.217l-13.945,3.085
			L289.836,203.6l13.945-3.085L320.75,277.217z M290.113,171.789c5.071-1.122,9.398,1.91,10.485,6.823
			c1.052,4.754-1.435,9.294-6.981,10.521c-5.071,1.122-9.24-1.945-10.292-6.699C282.273,177.678,284.884,172.945,290.113,171.789z
			 M237.822,213.444c23.455-5.188,32.701,9.555,36.067,24.769l6.345,28.684c1.473,6.656,3.228,13.083,5.177,18.139l-12.52,2.77
			l-3.248-9.422l-0.476,0.105c-2.947,6.968-9.995,14.18-20.931,16.599c-15.53,3.436-25.873-5.747-28.327-16.84
			c-4.102-18.542,10.136-32.33,39.806-38.729l-0.351-1.584c-1.367-6.181-5.67-17.363-21.324-13.734
			c-7.29,1.613-14.283,5.32-18.864,10.158l-5.238-8.649C219.4,220.346,228.155,215.582,237.822,213.444z M150.931,316.613
			c-6.497,1.438-12.218,0.375-16.352-2.533c-4.751-3.438-7.843-9.9-9.841-18.935l-9.256-41.838l-11.886,2.63l-2.349-10.617
			l11.886-2.63l-3.155-14.264l12.717-7.135l4.067,18.384l19.968-4.418l2.349,10.617l-19.968,4.418l9.15,41.362
			c2.104,9.51,5.989,14.3,13.755,12.582c3.803-0.841,5.952-1.648,7.871-2.738l2.983,10.479
			C160.387,313.523,156.319,315.421,150.931,316.613z M183.327,257.914c0.103,1.973,0.47,4.385,0.961,6.604l9.045,40.887
			l-13.945,3.085l-11.675-52.772c-1.998-9.033-3.875-16.764-5.928-23.789l12.203-2.699l4,15.072l0.475-0.105
			c1.208-11.072,8.328-19.462,17.678-21.53c1.426-0.315,2.571-0.403,3.874-0.525l2.91,13.154c-1.497-0.001-2.923,0.314-4.824,0.735
			C188.274,238.203,182.915,247.035,183.327,257.914z M263.087,385.914c-0.781,3.17-2.98,6.168-6.598,8.995
			s-8.11,4.832-13.479,6.017c-5.892,1.299-11.166,1.293-15.823-0.02c-4.658-1.311-8.013-3.551-10.063-6.718
			s-3.776-7.921-5.176-14.267l-1.223-5.543l20.445-4.51l2.272,10.301c0.7,3.173,1.437,5.149,2.212,5.929
			c0.775,0.78,1.895,1.007,3.358,0.685c1.464-0.323,2.427-1.139,2.889-2.446c0.46-1.308,0.441-3.095-0.059-5.362
			c-1.1-4.984-2.499-8.093-4.196-9.327c-1.733-1.226-5.732-3.03-11.997-5.415c-6.273-2.417-10.479-4.25-12.618-5.496
			c-2.139-1.246-4.112-3.188-5.918-5.822c-1.807-2.636-3.205-6.203-4.196-10.699c-1.431-6.484-1.649-11.408-0.653-14.771
			c0.993-3.363,3.151-6.297,6.474-8.803c3.321-2.506,7.599-4.336,12.827-5.489c5.717-1.261,10.793-1.411,15.227-0.452
			c4.434,0.96,7.614,2.698,9.54,5.216c1.926,2.519,3.632,7.142,5.115,13.868l0.738,3.348l-20.444,4.51l-1.385-6.275
			c-0.646-2.929-1.318-4.735-2.019-5.422s-1.66-0.895-2.88-0.625c-1.325,0.292-2.207,1.053-2.648,2.285
			c-0.441,1.23-0.42,2.945,0.064,5.144c0.623,2.824,1.475,4.869,2.555,6.13c1.045,1.271,3.5,2.538,7.363,3.804
			c11.082,3.654,18.307,7.066,21.675,10.234c3.366,3.169,5.966,8.901,7.796,17.198C263.594,378.145,263.868,382.745,263.087,385.914
			z M310.478,340.366c-0.569,2.722-2.198,5.073-4.887,7.056c-2.688,1.982-6.438,3.503-11.248,4.564l-5.909,1.303l7.521,34.094
			l-22.014,4.855l-18.674-84.656l22.17-4.891c5.996-1.322,10.71-1.869,14.143-1.64c3.432,0.229,6.154,1.056,8.168,2.476
			c2.013,1.421,3.586,3.331,4.719,5.73c1.133,2.402,2.283,6.251,3.452,11.549l1.626,7.373
			C310.736,333.584,311.047,337.646,310.478,340.366z M367.062,319.715l3.195,14.484c1.876,8.506,3.004,14.571,3.384,18.198
			s-0.161,7.137-1.625,10.53c-1.464,3.393-3.817,6.271-7.061,8.631c-3.245,2.361-7.255,4.067-12.031,5.121
			c-4.532,1-8.766,1.156-12.699,0.472c-3.935-0.685-7.327-2.269-10.177-4.747s-4.869-5.414-6.056-8.809
			c-1.188-3.393-2.742-9.447-4.665-18.162l-3.195-14.484c-1.876-8.506-3.004-14.572-3.384-18.198
			c-0.38-3.627,0.162-7.138,1.626-10.531c1.462-3.394,3.816-6.271,7.061-8.632c3.244-2.359,7.255-4.066,12.031-5.12
			c4.531-0.999,8.766-1.156,12.699-0.471c3.935,0.686,7.328,2.267,10.177,4.745c2.851,2.479,4.868,5.416,6.056,8.81
			C363.586,304.945,365.14,311,367.062,319.715z M395.233,260.739l-9.781-44.215c-2.734-12.361-9.609-21.646-22.763-18.735
			c-9.033,1.998-14.728,10.074-15.545,18.4c-0.248,1.883-0.039,4.33,0.486,6.707l10.202,46.117l-13.946,3.085l-12.375-55.942
			c-1.788-8.082-3.35-14.386-5.227-20.62l12.361-2.734l3.597,12.503l0.317-0.07c2.225-7.973,9.522-17.067,22.201-19.872
			c10.617-2.349,28.501,0.344,34.32,26.65l10.098,45.642L395.233,260.739z"/>
	</g>
</g>
</svg>
