<?xml version="1.0" encoding="utf-8"?>
<!-- Generator: Adobe Illustrator 15.0.2, SVG Export Plug-In . SVG Version: 6.00 Build 0)  -->
<!DOCTYPE svg PUBLIC "-//W3C//DTD SVG 1.1//EN" "http://www.w3.org/Graphics/SVG/1.1/DTD/svg11.dtd">
<svg version="1.1" id="Layer_1" xmlns="http://www.w3.org/2000/svg" xmlns:xlink="http://www.w3.org/1999/xlink" x="0px" y="0px"
	 width="45px" height="45px" viewBox="0 0 45 45" enable-background="new 0 0 45 45" xml:space="preserve">
<rect x="0.19" display="none" fill="#0A3E42" width="44.81" height="44.811"/>
<g>
	<path fill="#FFFFFF" d="M21.568,31.971l-2.294,0.481l-0.147-0.704c-0.069-0.326-0.142-0.531-0.219-0.608
		c-0.078-0.077-0.185-0.102-0.322-0.073c-0.149,0.031-0.249,0.115-0.299,0.254c-0.051,0.137-0.05,0.328,0.001,0.573
		c0.067,0.318,0.159,0.548,0.279,0.69c0.116,0.144,0.389,0.289,0.819,0.435c1.236,0.422,2.041,0.812,2.414,1.172
		c0.374,0.357,0.658,1.004,0.853,1.935c0.142,0.678,0.167,1.191,0.076,1.544c-0.091,0.355-0.341,0.688-0.75,1
		c-0.408,0.313-0.913,0.531-1.516,0.657c-0.661,0.139-1.251,0.133-1.771-0.02s-0.893-0.408-1.119-0.764
		c-0.226-0.357-0.413-0.894-0.562-1.604l-0.13-0.622l2.294-0.481l0.241,1.156c0.075,0.355,0.155,0.578,0.241,0.666
		c0.085,0.089,0.21,0.115,0.375,0.082c0.165-0.035,0.273-0.126,0.326-0.271c0.053-0.146,0.053-0.347,0-0.601
		c-0.118-0.56-0.271-0.908-0.459-1.048c-0.192-0.141-0.638-0.346-1.336-0.622c-0.699-0.277-1.168-0.487-1.406-0.631
		c-0.238-0.141-0.457-0.361-0.656-0.657c-0.199-0.298-0.352-0.697-0.458-1.202c-0.152-0.729-0.171-1.279-0.056-1.654
		c0.115-0.378,0.361-0.702,0.736-0.978c0.375-0.278,0.855-0.477,1.442-0.601c0.641-0.134,1.209-0.146,1.705-0.033
		c0.495,0.113,0.85,0.312,1.062,0.596c0.213,0.285,0.398,0.804,0.556,1.558L21.568,31.971z"/>
	<path fill="#FFFFFF" d="M21.945,28.894l2.487-0.522c0.673-0.142,1.201-0.197,1.586-0.166c0.384,0.028,0.688,0.124,0.911,0.287
		c0.224,0.161,0.397,0.377,0.521,0.646c0.125,0.269,0.249,0.701,0.373,1.297l0.174,0.827c0.126,0.606,0.157,1.062,0.091,1.366
		c-0.068,0.302-0.254,0.564-0.556,0.782c-0.305,0.219-0.727,0.385-1.266,0.499l-0.662,0.139l0.801,3.826l-2.47,0.516L21.945,28.894z
		 M24.756,30.001l0.507,2.416c0.071-0.012,0.132-0.022,0.183-0.031c0.227-0.049,0.373-0.137,0.438-0.267
		c0.064-0.131,0.061-0.371-0.014-0.724l-0.163-0.779c-0.068-0.326-0.163-0.524-0.286-0.602
		C25.298,29.937,25.076,29.933,24.756,30.001z"/>
	<path fill="#FFFFFF" d="M34.785,32.009c0.201,0.953,0.32,1.635,0.357,2.04c0.04,0.406-0.026,0.799-0.193,1.179
		c-0.168,0.377-0.435,0.697-0.801,0.957c-0.364,0.261-0.816,0.445-1.353,0.559c-0.508,0.105-0.981,0.119-1.423,0.037
		c-0.439-0.082-0.817-0.263-1.133-0.543c-0.316-0.28-0.54-0.61-0.668-0.992c-0.129-0.382-0.295-1.062-0.5-2.041l-0.34-1.624
		c-0.201-0.955-0.32-1.634-0.357-2.04c-0.04-0.408,0.026-0.799,0.193-1.179c0.168-0.377,0.435-0.696,0.8-0.957
		c0.367-0.261,0.817-0.446,1.354-0.558c0.509-0.107,0.982-0.121,1.423-0.038c0.439,0.082,0.816,0.263,1.135,0.543
		c0.315,0.28,0.538,0.612,0.666,0.992c0.13,0.382,0.295,1.062,0.501,2.039L34.785,32.009z M31.663,29.403
		c-0.094-0.439-0.177-0.72-0.252-0.832s-0.188-0.152-0.341-0.121c-0.13,0.026-0.217,0.097-0.265,0.212
		c-0.047,0.114-0.02,0.414,0.082,0.904l0.931,4.437c0.115,0.552,0.207,0.887,0.28,1.006c0.072,0.119,0.189,0.163,0.355,0.128
		c0.167-0.035,0.26-0.132,0.275-0.291c0.016-0.157-0.035-0.517-0.152-1.077L31.663,29.403z"/>
	<path fill="#FFFFFF" d="M39.518,25.212l0.399,1.9L38.45,27.42l1.388,6.625l-2.023,2.565l-1.835-8.673l-1.461,0.306l-0.397-1.901
		L39.518,25.212z"/>
</g>
<g>
	<path fill="#FFFFFF" d="M7.117,18.688l0.434,2.063l2.241-0.471l0.25,1.192l-2.241,0.471l0.976,4.642
		C9,27.652,9.43,28.193,10.302,28.01c0.426-0.09,0.668-0.177,0.884-0.296l0.322,1.176c-0.28,0.171-0.738,0.378-1.342,0.505
		c-0.729,0.153-1.369,0.028-1.829-0.303c-0.527-0.39-0.866-1.118-1.079-2.131l-0.987-4.695l-1.333,0.28l-0.25-1.192l1.333-0.28
		l-0.336-1.601L7.117,18.688z"/>
	<path fill="#FFFFFF" d="M12.115,22.597c-0.213-1.014-0.414-1.882-0.636-2.67l1.37-0.288l0.43,1.693l0.053-0.011
		c0.148-1.238,0.956-2.17,2.005-2.39c0.16-0.034,0.288-0.042,0.434-0.055l0.31,1.477c-0.167-0.001-0.328,0.032-0.541,0.077
		c-1.103,0.231-1.714,1.214-1.68,2.433c0.009,0.221,0.047,0.491,0.1,0.739l0.964,4.59l-1.565,0.328L12.115,22.597z"/>
	<path fill="#FFFFFF" d="M24.699,23.982c0.157,0.747,0.346,1.469,0.558,2.037l-1.404,0.295l-0.354-1.059l-0.053,0.012
		c-0.338,0.776-1.136,1.575-2.363,1.833c-1.743,0.366-2.89-0.673-3.151-1.919c-0.438-2.08,1.173-3.607,4.502-4.289l-0.037-0.178
		c-0.146-0.693-0.615-1.95-2.372-1.562c-0.818,0.172-1.605,0.579-2.124,1.115l-0.576-0.974c0.618-0.596,1.604-1.118,2.689-1.346
		c2.632-0.553,3.65,1.109,4.008,2.816L24.699,23.982z M22.698,21.97c-1.714,0.324-3.59,1.034-3.239,2.706
		c0.217,1.031,0.99,1.351,1.772,1.187c1.138-0.239,1.718-1.104,1.813-1.886c0.017-0.188-0.003-0.37-0.033-0.512L22.698,21.97z"/>
	<path fill="#FFFFFF" d="M27.083,14.122c0.111,0.533-0.172,1.039-0.795,1.17c-0.568,0.12-1.032-0.229-1.144-0.763
		c-0.112-0.533,0.186-1.06,0.772-1.183C26.486,13.227,26.967,13.571,27.083,14.122z M27.657,25.516l-1.809-8.608l1.564-0.329
		l1.809,8.608L27.657,25.516z"/>
	<path fill="#FFFFFF" d="M30.499,18.363c-0.19-0.907-0.358-1.616-0.561-2.315l1.387-0.292l0.388,1.404l0.036-0.007
		c0.259-0.891,1.086-1.899,2.509-2.199c1.191-0.25,3.19,0.072,3.812,3.025l1.076,5.122L37.58,23.43l-1.042-4.961
		c-0.292-1.388-1.051-2.435-2.527-2.125c-1.014,0.213-1.66,1.11-1.762,2.042c-0.03,0.209-0.01,0.484,0.047,0.752l1.087,5.175
		l-1.564,0.328L30.499,18.363z"/>
</g>
<circle fill="none" stroke="#FFFFFF" stroke-width="1.1769" stroke-miterlimit="10" cx="22.551" cy="22.449" r="21.016"/>
</svg>
